<?xml version="1.0" encoding="UTF-8" standalone="no"?>
<svg width="2446px" height="319px" viewBox="0 0 2446 319" version="1.1" xmlns="http://www.w3.org/2000/svg" xmlns:xlink="http://www.w3.org/1999/xlink">
    <!-- Generator: Sketch 50.2 (55047) - http://www.bohemiancoding.com/sketch -->
    <title>logo</title>
    <desc>Created with Sketch.</desc>
    <defs></defs>
    <g id="Page-1" stroke="none" stroke-width="1" fill="none" fill-rule="evenodd">
        <g id="Group" fill="#FFFFFF">
            <path d="M356.165992,311.385542 L350.45749,303.009639 L349.315789,303.009639 L353.121457,311.004819 L356.165992,311.385542 Z M322.676113,296.537349 L321.153846,296.537349 L324.959514,298.060241 L324.959514,296.918072 L322.676113,296.537349 Z M356.165992,291.587952 L348.935223,290.06506 L353.882591,294.633735 L356.927126,294.633735 L356.165992,291.587952 Z M307.453441,272.171084 L301.744939,272.171084 L304.408907,276.739759 L308.214575,274.455422 L307.453441,272.171084 Z M299.842105,271.409639 L297.558704,270.26747 L296.036437,271.409639 L299.842105,272.171084 L299.842105,271.409639 Z M313.54251,270.648193 L310.117409,270.26747 L314.303644,273.693976 L321.534413,271.409639 L320.773279,270.26747 L313.54251,270.648193 Z M303.267206,39.5493976 L302.88664,3 L196.327935,3 L195.947368,9.85301205 L197.850202,13.2795181 L200.51417,21.6554217 L195.947368,44.4987952 L198.230769,41.8337349 L193.663968,46.4024096 L191,55.539759 L191.380567,62.0120482 L201.275304,70.3879518 L205.842105,80.286747 L204.319838,90.946988 L206.983806,100.084337 L206.983806,105.795181 L222.587045,122.166265 L229.817814,133.968675 L226.012146,130.542169 L225.251012,138.537349 L227.153846,135.491566 L238.190283,143.86747 L240.093117,141.963855 L238.190283,133.587952 L241.615385,133.207229 L247.704453,137.014458 L251.510121,133.587952 L254.554656,137.014458 L260.643725,133.587952 L258.740891,137.014458 L262.927126,133.968675 L267.493927,137.395181 L261.785425,133.968675 L260.643725,137.395181 L248.08502,137.395181 L246.182186,137.014458 L242.376518,137.395181 L241.615385,138.918072 L243.898785,144.628916 L247.323887,147.293976 L251.510121,156.431325 L248.846154,156.431325 L241.995951,151.481928 L241.615385,144.628916 L238.190283,145.771084 L238.190283,154.527711 L243.898785,167.853012 L248.846154,173.563855 L254.935223,173.563855 L258.740891,177.751807 L256.838057,184.604819 L253.793522,185.366265 L256.076923,196.026506 L265.97166,205.925301 L272.441296,216.966265 L283.097166,224.961446 L283.097166,231.814458 L290.327935,233.718072 L290.327935,254.277108 L294.133603,256.561446 L318.870445,258.084337 L328.004049,262.653012 L332.951417,268.363855 L342.08502,271.409639 L350.45749,270.648193 L353.882591,279.785542 L361.11336,279.404819 L379,291.587952 L385.850202,300.725301 L388.133603,314.431325 L391.558704,312.908434 L392.319838,315.192771 L389.275304,314.431325 L392.319838,319 L466.149798,306.055422 L466.530364,298.060241 L460.821862,295.395181 L457.396761,283.973494 L463.105263,279.404819 L462.34413,265.318072 L473,252.373494 L465.769231,247.804819 L456.255061,231.053012 L304.408907,103.891566 L303.267206,39.5493976 Z" id="Shape" fill-rule="nonzero"></path>
            <polygon id="&lt;" points="0 117.751163 156 57 156 91.0627907 88.341573 114.94186 41.0157303 131.797674 41.0157303 133.202326 88.341573 150.05814 156 173.937209 156 208 0 147.248837"></polygon>
            <path d="M581.428453,0 L608.687763,0 L527.25931,305 L500,305 L581.428453,0 Z M781,147.241379 L625.482139,207.890805 L625.482139,173.885057 L692.931459,150.045977 L740.111034,133.218391 L740.111034,131.816092 L692.931459,114.988506 L625.482139,91.1494253 L625.482139,57.1436782 L781,117.793103 L781,147.241379 Z" id="/&gt;"></path>
        </g>
        <path d="M844,140.783067 C844,127.557105 846.096767,115.823273 850.290365,105.581217 C854.483962,95.3391614 860.129105,86.7101574 867.225963,79.6939461 C874.32282,72.6777348 882.508277,67.3148491 891.782579,63.6051282 C901.056882,59.8954073 910.774592,58.0405746 920.936001,58.0405746 C930.936119,58.0405746 940.00867,60.0970195 948.153926,64.209971 C956.299183,68.3229224 963.194322,73.2019387 968.839549,78.8471662 L946.097461,104.4925 C942.226448,101.105364 938.436138,98.4844044 934.726417,96.6295439 C931.016696,94.7746834 926.581226,93.8472671 921.419876,93.8472671 C916.742401,93.8472671 912.26661,94.8956508 907.992366,96.9924496 C903.718122,99.0892483 900.008457,102.07311 896.863259,105.944123 C893.718061,109.815136 891.218069,114.573185 889.363208,120.218412 C887.508348,125.86364 886.580932,132.234587 886.580932,139.331444 C886.580932,154.170328 889.68576,165.541258 895.89551,173.444577 C902.105261,181.347895 910.290718,185.299495 920.452127,185.299495 C926.581231,185.299495 931.863472,184.130144 936.299008,181.791407 C940.734544,179.45267 944.645821,176.428486 948.032958,172.718765 L970.775046,197.880225 C964.000773,205.622251 956.258863,211.428684 947.549084,215.299697 C938.839304,219.17071 929.645786,221.106188 919.968253,221.106188 C909.645551,221.106188 899.887519,219.452967 890.693862,216.146477 C881.500206,212.839987 873.435717,207.840003 866.500151,201.146376 C859.564586,194.452749 854.080733,186.06568 850.048428,175.984916 C846.016122,165.904153 844,154.17032 844,140.783067 Z M979.511663,157.718665 C979.511663,147.718547 981.164883,138.766964 984.471373,130.863645 C987.777864,122.960327 992.213333,116.307123 997.777914,110.903833 C1003.3425,105.500544 1009.75377,101.387655 1017.01191,98.5650408 C1024.27006,95.742427 1031.77004,94.3311413 1039.51207,94.3311413 C1047.25409,94.3311413 1054.71375,95.742427 1061.89125,98.5650408 C1069.06875,101.387655 1075.4397,105.500544 1081.00428,110.903833 C1086.56886,116.307123 1091.04465,122.960327 1094.43179,130.863645 C1097.81893,138.766964 1099.51247,147.718547 1099.51247,157.718665 C1099.51247,167.718782 1097.81893,176.670365 1094.43179,184.573684 C1091.04465,192.477002 1086.56886,199.130206 1081.00428,204.533496 C1075.4397,209.936785 1069.06875,214.049674 1061.89125,216.872288 C1054.71375,219.694902 1047.25409,221.106188 1039.51207,221.106188 C1031.77004,221.106188 1024.27006,219.694902 1017.01191,216.872288 C1009.75377,214.049674 1003.3425,209.936785 997.777914,204.533496 C992.213333,199.130206 987.777864,192.477002 984.471373,184.573684 C981.164883,176.670365 979.511663,167.718782 979.511663,157.718665 Z M1022.09259,157.718665 C1022.09259,166.912321 1023.42323,174.210684 1026.08456,179.613973 C1028.74588,185.017262 1033.22167,187.718866 1039.51207,187.718866 C1045.80246,187.718866 1050.27825,185.017262 1052.93958,179.613973 C1055.6009,174.210684 1056.93154,166.912321 1056.93154,157.718665 C1056.93154,148.525008 1055.6009,141.226645 1052.93958,135.823356 C1050.27825,130.420067 1045.80246,127.718463 1039.51207,127.718463 C1033.22167,127.718463 1028.74588,130.420067 1026.08456,135.823356 C1023.42323,141.226645 1022.09259,148.525008 1022.09259,157.718665 Z M1112.60395,157.718665 C1112.60395,147.879839 1114.01524,139.008901 1116.83785,131.105582 C1119.66047,123.202264 1123.37013,116.54906 1127.96696,111.145771 C1132.56379,105.742481 1137.84603,101.589269 1143.81384,98.6860093 C1149.78165,95.7827495 1155.83002,94.3311413 1161.95912,94.3311413 C1168.57211,94.3311413 1173.97531,95.4198475 1178.16891,97.5972923 C1182.36251,99.7747372 1186.31411,102.718276 1190.02383,106.427997 L1188.57221,89.0085249 L1188.57221,49.8147129 L1230.18539,49.8147129 L1230.18539,218.202942 L1196.31419,218.202942 L1193.41095,207.073835 L1192.4432,207.073835 C1188.2496,211.267433 1183.45123,214.654518 1178.04794,217.235194 C1172.64465,219.815869 1167.28177,221.106188 1161.95912,221.106188 C1154.37839,221.106188 1147.5639,219.65458 1141.51544,216.75132 C1135.46698,213.84806 1130.30571,209.654525 1126.03146,204.17059 C1121.75722,198.686655 1118.45078,192.033451 1116.11204,184.210778 C1113.77331,176.388106 1112.60395,167.55749 1112.60395,157.718665 Z M1155.18489,157.23479 C1155.18489,168.202661 1156.75746,175.944571 1159.90266,180.460753 C1163.04786,184.976935 1167.443,187.234992 1173.08823,187.234992 C1176.31408,187.234992 1179.13665,186.630155 1181.55603,185.420464 C1183.97541,184.210772 1186.31412,181.912393 1188.57221,178.525256 L1188.57221,134.008828 C1186.15282,131.750737 1183.49154,130.218484 1180.58828,129.412022 C1177.68502,128.605561 1174.86245,128.202337 1172.12048,128.202337 C1167.76559,128.202337 1163.85432,130.379749 1160.38653,134.734639 C1156.91875,139.089529 1155.18489,146.589504 1155.18489,157.23479 Z M1248.59949,157.718665 C1248.59949,147.879839 1250.25271,139.049223 1253.5592,131.226551 C1256.86569,123.403878 1261.22052,116.750674 1266.62381,111.266739 C1272.02709,105.782804 1278.19643,101.589269 1285.13199,98.6860093 C1292.06756,95.7827495 1299.24496,94.3311413 1306.6644,94.3311413 C1315.53547,94.3311413 1323.27738,95.8633944 1329.89036,98.9279465 C1336.50334,101.992499 1341.98719,106.186033 1346.34208,111.508676 C1350.69697,116.831319 1353.96309,123.040976 1356.14054,130.137834 C1358.31798,137.234691 1359.40669,144.815312 1359.40669,152.879922 C1359.40669,156.589643 1359.20508,159.896084 1358.80184,162.799344 C1358.39861,165.702604 1358.03571,167.880016 1357.71313,169.331646 L1288.76105,169.331646 C1290.69656,177.073672 1294.16429,182.396235 1299.16435,185.299495 C1304.16441,188.202755 1310.05148,189.654363 1316.82576,189.654363 C1321.01935,189.654363 1325.09192,189.049526 1329.04358,187.839835 C1332.99524,186.630143 1337.14845,184.815633 1341.50334,182.39625 L1355.05182,207.073835 C1348.43884,211.751309 1341.14048,215.259362 1333.15651,217.5981 C1325.17255,219.936837 1317.79354,221.106188 1311.01927,221.106188 C1302.14819,221.106188 1293.92241,219.694902 1286.34168,216.872288 C1278.76095,214.049674 1272.18839,209.936785 1266.62381,204.533496 C1261.05922,199.130206 1256.66408,192.477002 1253.43823,184.573684 C1250.21239,176.670365 1248.59949,167.718782 1248.59949,157.718665 Z M1324.08387,144.170186 C1324.08387,139.008835 1322.91452,134.654011 1320.57578,131.105582 C1318.23704,127.557154 1313.92254,125.782966 1307.63215,125.782966 C1302.95467,125.782966 1298.8821,127.153929 1295.41432,129.895897 C1291.94654,132.637864 1289.56751,137.395913 1288.27718,144.170186 L1324.08387,144.170186 Z M1422.84797,140.783067 C1422.84797,127.557105 1424.94474,115.823273 1429.13834,105.581217 C1433.33193,95.3391614 1438.97708,86.7101574 1446.07393,79.6939461 C1453.17079,72.6777348 1461.35625,67.3148491 1470.63055,63.6051282 C1479.90485,59.8954073 1489.62256,58.0405746 1499.78397,58.0405746 C1509.78409,58.0405746 1518.85664,60.0970195 1527.0019,64.209971 C1535.14715,68.3229224 1542.04229,73.2019387 1547.68752,78.8471662 L1524.94543,104.4925 C1521.07442,101.105364 1517.28411,98.4844044 1513.57439,96.6295439 C1509.86467,94.7746834 1505.4292,93.8472671 1500.26785,93.8472671 C1495.59037,93.8472671 1491.11458,94.8956508 1486.84034,96.9924496 C1482.56609,99.0892483 1478.85643,102.07311 1475.71123,105.944123 C1472.56603,109.815136 1470.06604,114.573185 1468.21118,120.218412 C1466.35632,125.86364 1465.4289,132.234587 1465.4289,139.331444 C1465.4289,154.170328 1468.53373,165.541258 1474.74348,173.444577 C1480.95323,181.347895 1489.13869,185.299495 1499.3001,185.299495 C1505.4292,185.299495 1510.71144,184.130144 1515.14698,181.791407 C1519.58252,179.45267 1523.49379,176.428486 1526.88093,172.718765 L1549.62302,197.880225 C1542.84874,205.622251 1535.10683,211.428684 1526.39706,215.299697 C1517.68728,219.17071 1508.49376,221.106188 1498.81622,221.106188 C1488.49352,221.106188 1478.73549,219.452967 1469.54183,216.146477 C1460.34818,212.839987 1452.28369,207.840003 1445.34812,201.146376 C1438.41256,194.452749 1432.9287,186.06568 1428.8964,175.984916 C1424.86409,165.904153 1422.84797,154.17032 1422.84797,140.783067 Z M1560.77901,183.847873 C1560.77901,171.26708 1565.94028,161.38808 1576.26298,154.210576 C1586.58568,147.033073 1603.35982,142.234701 1626.5859,139.815318 C1625.61815,131.428123 1619.973,127.234588 1609.6503,127.234588 C1605.29541,127.234588 1600.69865,128.08136 1595.85989,129.774928 C1591.02112,131.468496 1585.45662,134.008811 1579.16623,137.395947 L1564.65,110.298991 C1573.19849,105.13764 1581.82749,101.18604 1590.53727,98.4440722 C1599.24705,95.7021046 1608.35992,94.3311413 1617.87616,94.3311413 C1633.52151,94.3311413 1645.81985,98.8069331 1654.77157,107.758651 C1663.72329,116.710369 1668.19908,131.105483 1668.19908,150.944425 L1668.19908,218.202942 L1634.32789,218.202942 L1631.42464,206.589961 L1630.45689,206.589961 C1625.61813,210.944851 1620.49718,214.452904 1615.09389,217.114225 C1609.6906,219.775547 1603.68255,221.106188 1597.06957,221.106188 C1591.42434,221.106188 1586.34372,220.098126 1581.82753,218.081974 C1577.31135,216.065821 1573.48072,213.364217 1570.33552,209.977081 C1567.19032,206.589944 1564.8113,202.638344 1563.19838,198.122162 C1561.58545,193.60598 1560.77901,188.847931 1560.77901,183.847873 Z M1600.45669,180.460753 C1600.45669,186.267273 1604.16636,189.170489 1611.5858,189.170489 C1614.97293,189.170489 1617.75518,188.404362 1619.93263,186.872086 C1622.11007,185.33981 1624.32781,183.36401 1626.5859,180.944627 L1626.5859,164.492904 C1616.58578,165.944534 1609.73097,168.121946 1606.02124,171.025206 C1602.31152,173.928465 1600.45669,177.073616 1600.45669,180.460753 Z M1692.41967,49.8147129 L1734.03286,49.8147129 L1734.03286,177.073633 C1734.03286,181.267231 1734.79898,184.089802 1736.33126,185.541432 C1737.86354,186.993062 1739.35547,187.718866 1740.8071,187.718866 L1742.86356,187.718866 C1743.42808,187.718866 1744.19421,187.557577 1745.16196,187.234992 L1750.00071,217.719068 C1747.74262,218.686821 1744.96037,219.49327 1741.65388,220.138439 C1738.34739,220.783608 1734.35546,221.106188 1729.67799,221.106188 C1722.58113,221.106188 1716.65373,220.017482 1711.89561,217.840037 C1707.13749,215.662592 1703.30686,212.557763 1700.4036,208.525458 C1697.50034,204.493153 1695.44389,199.694781 1694.2342,194.1302 C1693.02451,188.565618 1692.41967,182.396284 1692.41967,175.622011 L1692.41967,49.8147129 Z M1781.96329,82.2342858 C1775.18901,82.2342858 1769.62451,80.2988082 1765.26962,76.4277951 C1760.91473,72.556782 1758.73732,67.5567983 1758.73732,61.4276942 C1758.73732,55.2985901 1760.91473,50.2986064 1765.26962,46.4275933 C1769.62451,42.5565802 1775.18901,40.6211026 1781.96329,40.6211026 C1788.73756,40.6211026 1794.30206,42.5565802 1798.65695,46.4275933 C1803.01184,50.2986064 1805.18925,55.2985901 1805.18925,61.4276942 C1805.18925,67.5567983 1803.01184,72.556782 1798.65695,76.4277951 C1794.30206,80.2988082 1788.73756,82.2342858 1781.96329,82.2342858 Z M1761.15669,97.2343867 L1802.76988,97.2343867 L1802.76988,218.202942 L1761.15669,218.202942 L1761.15669,97.2343867 Z M1901.02322,81.7504116 C1899.08772,80.9439505 1897.0716,80.3391138 1894.9748,79.9358832 C1892.878,79.5326527 1890.86188,79.3310404 1888.92637,79.3310404 C1885.05536,79.3310404 1881.99085,80.4197466 1879.73276,82.5971914 C1877.47467,84.7746363 1876.34564,88.6859139 1876.34564,94.3311413 L1876.34564,97.2343867 L1896.66836,97.2343867 L1896.66836,129.65396 L1876.34564,129.65396 L1876.34564,218.202942 L1834.73246,218.202942 L1834.73246,129.65396 L1818.76461,129.65396 L1818.76461,98.6860093 L1834.73246,97.4763238 L1834.73246,95.782764 C1834.73246,89.3310754 1835.5389,83.1617408 1837.15183,77.274575 C1838.76475,71.3874092 1841.46635,66.1858133 1845.25672,61.6696313 C1849.04709,57.1534493 1853.96643,53.5647514 1860.01488,50.9034299 C1866.06334,48.2421083 1873.60364,46.9114675 1882.636,46.9114675 C1888.28123,46.9114675 1893.28121,47.3953369 1897.6361,48.3630902 C1901.99099,49.3308435 1905.53937,50.2985822 1908.28134,51.2663355 L1901.02322,81.7504116 Z M1902.50173,157.718665 C1902.50173,147.718547 1904.15495,138.766964 1907.46144,130.863645 C1910.76793,122.960327 1915.2034,116.307123 1920.76798,110.903833 C1926.33256,105.500544 1932.74383,101.387655 1940.00198,98.5650408 C1947.26013,95.742427 1954.7601,94.3311413 1962.50213,94.3311413 C1970.24416,94.3311413 1977.70381,95.742427 1984.88131,98.5650408 C1992.05882,101.387655 1998.42976,105.500544 2003.99435,110.903833 C2009.55893,116.307123 2014.03472,122.960327 2017.42185,130.863645 C2020.80899,138.766964 2022.50253,147.718547 2022.50253,157.718665 C2022.50253,167.718782 2020.80899,176.670365 2017.42185,184.573684 C2014.03472,192.477002 2009.55893,199.130206 2003.99435,204.533496 C1998.42976,209.936785 1992.05882,214.049674 1984.88131,216.872288 C1977.70381,219.694902 1970.24416,221.106188 1962.50213,221.106188 C1954.7601,221.106188 1947.26013,219.694902 1940.00198,216.872288 C1932.74383,214.049674 1926.33256,209.936785 1920.76798,204.533496 C1915.2034,199.130206 1910.76793,192.477002 1907.46144,184.573684 C1904.15495,176.670365 1902.50173,167.718782 1902.50173,157.718665 Z M1945.08266,157.718665 C1945.08266,166.912321 1946.4133,174.210684 1949.07462,179.613973 C1951.73594,185.017262 1956.21173,187.718866 1962.50213,187.718866 C1968.79253,187.718866 1973.26832,185.017262 1975.92964,179.613973 C1978.59096,174.210684 1979.9216,166.912321 1979.9216,157.718665 C1979.9216,148.525008 1978.59096,141.226645 1975.92964,135.823356 C1973.26832,130.420067 1968.79253,127.718463 1962.50213,127.718463 C1956.21173,127.718463 1951.73594,130.420067 1949.07462,135.823356 C1946.4133,141.226645 1945.08266,148.525008 1945.08266,157.718665 Z M2040.91663,97.2343867 L2074.78783,97.2343867 L2077.69108,118.040978 L2078.65882,118.040978 C2083.17501,109.815075 2088.53789,103.80703 2094.74764,100.016663 C2100.95739,96.2262964 2107.04608,94.3311413 2113.01389,94.3311413 C2116.72362,94.3311413 2119.70748,94.5327536 2121.96557,94.9359841 C2124.22366,95.3392147 2126.23978,95.9440514 2128.014,96.7505125 L2121.23976,132.557205 C2118.98166,132.073328 2116.84458,131.629781 2114.82842,131.226551 C2112.81227,130.82332 2110.43325,130.621708 2107.69128,130.621708 C2103.33639,130.621708 2098.77995,132.113639 2094.02183,135.097545 C2089.26371,138.081451 2085.43308,143.363691 2082.52982,150.944425 L2082.52982,218.202942 L2040.91663,218.202942 L2040.91663,97.2343867 Z M2138.68611,97.2343867 L2172.5573,97.2343867 L2175.46055,111.750613 L2176.4283,111.750613 C2181.26706,107.073139 2186.79124,103.000572 2193.00099,99.5327892 C2199.21074,96.0650066 2206.42846,94.3311413 2214.65436,94.3311413 C2227.88032,94.3311413 2237.47707,98.8069331 2243.44488,107.758651 C2249.41269,116.710369 2252.39655,128.686136 2252.39655,143.686312 L2252.39655,218.202942 L2210.78337,218.202942 L2210.78337,149.008929 C2210.78337,141.266902 2209.81563,136.105629 2207.88012,133.524953 C2205.94462,130.944278 2202.88011,129.65396 2198.68651,129.65396 C2194.8155,129.65396 2191.5897,130.460409 2189.00903,132.073331 C2186.42835,133.686253 2183.52514,135.94431 2180.29929,138.84757 L2180.29929,218.202942 L2138.68611,218.202942 L2138.68611,97.2343867 Z M2296.93986,82.2342858 C2290.16559,82.2342858 2284.60109,80.2988082 2280.2462,76.4277951 C2275.89131,72.556782 2273.7139,67.5567983 2273.7139,61.4276942 C2273.7139,55.2985901 2275.89131,50.2986064 2280.2462,46.4275933 C2284.60109,42.5565802 2290.16559,40.6211026 2296.93986,40.6211026 C2303.71413,40.6211026 2309.27863,42.5565802 2313.63352,46.4275933 C2317.98841,50.2986064 2320.16582,55.2985901 2320.16582,61.4276942 C2320.16582,67.5567983 2317.98841,72.556782 2313.63352,76.4277951 C2309.27863,80.2988082 2303.71413,82.2342858 2296.93986,82.2342858 Z M2276.13327,97.2343867 L2317.74645,97.2343867 L2317.74645,218.202942 L2276.13327,218.202942 L2276.13327,97.2343867 Z M2338.57992,183.847873 C2338.57992,171.26708 2343.7412,161.38808 2354.0639,154.210576 C2364.3866,147.033073 2381.16074,142.234701 2404.38682,139.815318 C2403.41906,131.428123 2397.77392,127.234588 2387.45122,127.234588 C2383.09633,127.234588 2378.49957,128.08136 2373.6608,129.774928 C2368.82204,131.468496 2363.25754,134.008811 2356.96714,137.395947 L2342.45092,110.298991 C2350.9994,105.13764 2359.62841,101.18604 2368.33819,98.4440722 C2377.04797,95.7021046 2386.16084,94.3311413 2395.67708,94.3311413 C2411.32243,94.3311413 2423.62077,98.8069331 2432.57249,107.758651 C2441.52421,116.710369 2446,131.105483 2446,150.944425 L2446,218.202942 L2412.1288,218.202942 L2409.22556,206.589961 L2408.25781,206.589961 C2403.41904,210.944851 2398.29809,214.452904 2392.8948,217.114225 C2387.49151,219.775547 2381.48347,221.106188 2374.87049,221.106188 C2369.22526,221.106188 2364.14463,220.098126 2359.62845,218.081974 C2355.11227,216.065821 2351.28164,213.364217 2348.13644,209.977081 C2344.99124,206.589944 2342.61222,202.638344 2340.99929,198.122162 C2339.38637,193.60598 2338.57992,188.847931 2338.57992,183.847873 Z M2378.25761,180.460753 C2378.25761,186.267273 2381.96727,189.170489 2389.38672,189.170489 C2392.77385,189.170489 2395.5561,188.404362 2397.73355,186.872086 C2399.91099,185.33981 2402.12873,183.36401 2404.38682,180.944627 L2404.38682,164.492904 C2394.3867,165.944534 2387.53188,168.121946 2383.82216,171.025206 C2380.11244,173.928465 2378.25761,177.073616 2378.25761,180.460753 Z" id="Code-California" fill="#FFFFFF"></path>
    </g>
</svg>